# xmcd
#
# Track frame offsets:
#	150
#	17889
#	30697
#	43771
#	55795
#	69292
#	83044
#	96990
#	112827
#	125247
#	139256
#	157761
#	171415
#	182046
#	196517
#	212089
#	227501
#	239337
#	256606
#	271042
#	283912
#
# Disc length: 3868 seconds
#
# Revision: 0
# Processed by: cddbd v1.5.2PL0 Copyright (c) Steve Scherf et al.
# Submitted via: dBpowerAMP V4.0
#
DISCID=1d0f1a15
DTITLE=Felipe and Falcão - Boteco do Felipe and Falcão
DYEAR=2008
DGENRE=Country
TTITLE0=O amor está no Ar
TTITLE1=Pirarucú
TTITLE2=Radinho de Pilha
TTITLE3=Dói
TTITLE4=Monzão no Pau
TTITLE5=Lambendo a Butija
TTITLE6=Batida de Mamão
TTITLE7=Alguém te viu por Aí
TTITLE8=Chá de Sumisso
TTITLE9=Paixão Pra Mais Mês
TTITLE10=Apaga Tudo e Vem
TTITLE11=Seguindo Seus Passos
TTITLE12=Mulher á Meia
TTITLE13=Viola minha Viola
TTITLE14=Você é Isso
TTITLE15=Experimenta
TTITLE16=Demorô
TTITLE17=Disque 190
TTITLE18=Sapeca o Trem
TTITLE19=Vaneirão da Mulher Feia
TTITLE20=Bonus Track
EXTD=
EXTT0=
EXTT1=
EXTT2=
EXTT3=
EXTT4=
EXTT5=
EXTT6=
EXTT7=
EXTT8=
EXTT9=
EXTT10=
EXTT11=
EXTT12=
EXTT13=
EXTT14=
EXTT15=
EXTT16=
EXTT17=
EXTT18=
EXTT19=
EXTT20=
PLAYORDER=
